<svg width="250" height="30" viewBox="0 0 1969 188" fill="none" xmlns="http://www.w3.org/2000/svg">
  <g id="Group 17">
    <g id="texto">
    <path d="M61.952 158.72H6.336C4.10667 158.72 2.464 158.251 1.408 157.312C0.469333 156.256 0 154.613 0 152.384V131.792C0 129.563 0.469333 127.979 1.408 127.04C2.464 125.984 4.10667 125.456 6.336 125.456H53.68C55.2053 125.456 56.32 124.987 57.024 124.048C57.8453 122.992 58.256 121.76 58.256 120.352C58.256 118.357 57.8453 116.891 57.024 115.952C56.32 115.013 55.2053 114.485 53.68 114.368L27.28 110.672C19.0667 109.499 12.4373 106.8 7.392 102.576C2.464 98.352 0 91.312 0 81.456V62.976C0 53.0027 3.22667 45.376 9.68 40.096C16.1333 34.6987 25.0507 32 36.432 32H85.712C87.9413 32 89.5253 32.528 90.464 33.584C91.52 34.5227 92.048 36.1067 92.048 38.336V59.28C92.048 61.5093 91.52 63.152 90.464 64.208C89.5253 65.1467 87.9413 65.616 85.712 65.616H44.704C43.1787 65.616 42.0053 66.144 41.184 67.2C40.3627 68.1387 39.952 69.3707 39.952 70.896C39.952 72.4213 40.3627 73.712 41.184 74.768C42.0053 75.824 43.1787 76.4107 44.704 76.528L70.928 80.048C79.1413 81.2213 85.7707 83.92 90.816 88.144C95.8613 92.368 98.384 99.408 98.384 109.264V127.744C98.384 137.717 95.0987 145.403 88.528 150.8C82.0747 156.08 73.216 158.72 61.952 158.72Z" fill="white"/>
    <path d="M180.158 158.72H151.646C149.417 158.72 147.774 158.251 146.718 157.312C145.779 156.256 145.31 154.613 145.31 152.384V129.856L118.382 93.776C115.683 90.1387 113.865 86.9707 112.926 84.272C112.105 81.5733 111.694 77.5253 111.694 72.128V38.336C111.694 36.1067 112.163 34.5227 113.102 33.584C114.158 32.528 115.801 32 118.03 32H145.134C147.363 32 148.947 32.528 149.886 33.584C150.942 34.5227 151.47 36.1067 151.47 38.336V67.2C151.47 68.3733 151.529 69.6053 151.646 70.896C151.763 72.1867 152.233 73.4187 153.054 74.592L161.15 87.264C161.737 88.32 162.323 89.0827 162.91 89.552C163.614 90.0213 164.435 90.256 165.374 90.256H167.134C168.073 90.256 168.835 90.0213 169.422 89.552C170.126 89.0827 170.771 88.32 171.358 87.264L179.454 74.592C180.275 73.4187 180.745 72.1867 180.862 70.896C180.979 69.6053 181.038 68.3733 181.038 67.2V38.336C181.038 36.1067 181.507 34.5227 182.446 33.584C183.502 32.528 185.145 32 187.374 32H213.598C215.827 32 217.411 32.528 218.35 33.584C219.406 34.5227 219.934 36.1067 219.934 38.336V72.128C219.934 77.5253 219.465 81.5733 218.526 84.272C217.587 86.9707 215.827 90.1387 213.246 93.776L186.494 130.032V152.384C186.494 154.613 185.966 156.256 184.91 157.312C183.971 158.251 182.387 158.72 180.158 158.72Z" fill="white"/>
    <path d="M272.748 158.72H246.348C244.118 158.72 242.476 158.251 241.42 157.312C240.481 156.256 240.012 154.613 240.012 152.384V38.336C240.012 36.1067 240.481 34.5227 241.42 33.584C242.476 32.528 244.118 32 246.348 32H264.652C266.881 32 268.758 32.352 270.284 33.056C271.926 33.76 273.51 34.992 275.036 36.752L309.18 75.824V38.336C309.18 36.1067 309.649 34.5227 310.588 33.584C311.644 32.528 313.286 32 315.516 32H341.916C344.145 32 345.729 32.528 346.668 33.584C347.724 34.5227 348.252 36.1067 348.252 38.336V152.384C348.252 154.613 347.724 156.256 346.668 157.312C345.729 158.251 344.145 158.72 341.916 158.72H315.516C313.286 158.72 311.644 158.251 310.588 157.312C309.649 156.256 309.18 154.613 309.18 152.384V130.736L279.084 94.304V152.384C279.084 154.613 278.556 156.256 277.5 157.312C276.561 158.251 274.977 158.72 272.748 158.72Z" fill="white"/>
    <path d="M432.367 158.72H403.855C401.626 158.72 399.983 158.251 398.927 157.312C397.989 156.256 397.519 154.613 397.519 152.384V65.968H371.647C369.418 65.968 367.775 65.4987 366.719 64.56C365.781 63.504 365.311 61.8613 365.311 59.632V38.336C365.311 36.1067 365.781 34.5227 366.719 33.584C367.775 32.528 369.418 32 371.647 32H464.575C466.805 32 468.389 32.528 469.327 33.584C470.383 34.5227 470.911 36.1067 470.911 38.336V59.632C470.911 61.8613 470.383 63.504 469.327 64.56C468.389 65.4987 466.805 65.968 464.575 65.968H438.703V152.384C438.703 154.613 438.175 156.256 437.119 157.312C436.181 158.251 434.597 158.72 432.367 158.72Z" fill="white"/>
    <path d="M521.643 158.72H494.363C492.134 158.72 490.491 158.251 489.435 157.312C488.497 156.256 488.027 154.613 488.027 152.384V38.336C488.027 36.1067 488.497 34.5227 489.435 33.584C490.491 32.528 492.134 32 494.363 32H521.643C523.873 32 525.457 32.528 526.395 33.584C527.451 34.5227 527.979 36.1067 527.979 38.336V76.528H557.371V38.336C557.371 36.1067 557.841 34.5227 558.779 33.584C559.835 32.528 561.478 32 563.707 32H590.987C593.217 32 594.801 32.528 595.739 33.584C596.795 34.5227 597.323 36.1067 597.323 38.336V152.384C597.323 154.613 596.795 156.256 595.739 157.312C594.801 158.251 593.217 158.72 590.987 158.72H563.707C561.478 158.72 559.835 158.251 558.779 157.312C557.841 156.256 557.371 154.613 557.371 152.384V113.312H527.979V152.384C527.979 154.613 527.451 156.256 526.395 157.312C525.457 158.251 523.873 158.72 521.643 158.72Z" fill="white"/>
    <path d="M709.574 158.72H627.91C625.681 158.72 624.038 158.251 622.982 157.312C622.044 156.256 621.574 154.613 621.574 152.384V38.336C621.574 36.1067 622.044 34.5227 622.982 33.584C624.038 32.528 625.681 32 627.91 32H709.574C711.804 32 713.388 32.528 714.326 33.584C715.382 34.5227 715.91 36.1067 715.91 38.336V58.928C715.91 61.1573 715.382 62.8 714.326 63.856C713.388 64.7947 711.804 65.264 709.574 65.264H660.998V78.816H695.318C697.548 78.816 699.132 79.344 700.07 80.4C701.126 81.3387 701.654 82.9227 701.654 85.152V103.984C701.654 106.213 701.126 107.856 700.07 108.912C699.132 109.851 697.548 110.32 695.318 110.32H660.998V125.456H709.574C711.804 125.456 713.388 125.984 714.326 127.04C715.382 127.979 715.91 129.563 715.91 131.792V152.384C715.91 154.613 715.382 156.256 714.326 157.312C713.388 158.251 711.804 158.72 709.574 158.72Z" fill="white"/>
    <path d="M796.57 158.72H768.058C765.829 158.72 764.186 158.251 763.13 157.312C762.192 156.256 761.722 154.613 761.722 152.384V65.968H735.851C733.621 65.968 731.978 65.4987 730.922 64.56C729.984 63.504 729.515 61.8613 729.515 59.632V38.336C729.515 36.1067 729.984 34.5227 730.922 33.584C731.978 32.528 733.621 32 735.851 32H828.779C831.008 32 832.592 32.528 833.531 33.584C834.587 34.5227 835.115 36.1067 835.115 38.336V59.632C835.115 61.8613 834.587 63.504 833.531 64.56C832.592 65.4987 831.008 65.968 828.779 65.968H802.906V152.384C802.906 154.613 802.379 156.256 801.323 157.312C800.384 158.251 798.8 158.72 796.57 158.72Z" fill="white"/>
    <path d="M855.75 158.72C853.521 158.72 851.879 158.251 850.823 157.312C849.884 156.256 849.414 154.613 849.414 152.384V131.44C849.414 129.211 849.884 127.627 850.823 126.688C851.879 125.632 853.521 125.104 855.75 125.104H873.174V65.968H855.75C853.521 65.968 851.879 65.4987 850.823 64.56C849.884 63.504 849.414 61.8613 849.414 59.632V38.336C849.414 36.1067 849.884 34.5227 850.823 33.584C851.879 32.528 853.521 32 855.75 32H930.727C932.956 32 934.54 32.528 935.479 33.584C936.535 34.5227 937.062 36.1067 937.062 38.336V59.632C937.062 61.8613 936.535 63.504 935.479 64.56C934.54 65.4987 932.956 65.968 930.727 65.968H913.654V125.104H930.727C932.956 125.104 934.54 125.632 935.479 126.688C936.535 127.627 937.062 129.211 937.062 131.44V152.384C937.062 154.613 936.535 156.256 935.479 157.312C934.54 158.251 932.956 158.72 930.727 158.72H855.75Z" fill="white"/>
    <path d="M1043.1 158.72H1000.15C985.486 158.72 974.574 155.787 967.417 149.92C960.377 144.053 956.857 135.019 956.857 122.816V68.08C956.857 55.8773 960.377 46.8427 967.417 40.976C974.574 34.992 985.486 32 1000.15 32H1043.1C1045.33 32 1046.91 32.528 1047.85 33.584C1048.9 34.5227 1049.43 36.1067 1049.43 38.336V59.632C1049.43 61.8613 1048.9 63.504 1047.85 64.56C1046.91 65.4987 1045.33 65.968 1043.1 65.968H1007.72C1004.08 65.968 1001.38 66.7307 999.625 68.256C997.865 69.664 996.985 71.8347 996.985 74.768V116.656C996.985 119.589 997.865 121.76 999.625 123.168C1001.38 124.459 1004.08 125.104 1007.72 125.104H1043.1C1045.33 125.104 1046.91 125.632 1047.85 126.688C1048.9 127.627 1049.43 129.211 1049.43 131.44V152.384C1049.43 154.613 1048.9 156.256 1047.85 157.312C1046.91 158.251 1045.33 158.72 1043.1 158.72Z" fill="white"/>
    <path d="M1193.14 158.72H1150.2C1135.53 158.72 1124.62 155.787 1117.46 149.92C1110.42 144.053 1106.9 135.019 1106.9 122.816V68.08C1106.9 55.8773 1110.42 46.8427 1117.46 40.976C1124.62 34.992 1135.53 32 1150.2 32H1193.14C1195.37 32 1196.96 32.528 1197.9 33.584C1198.95 34.5227 1199.48 36.1067 1199.48 38.336V59.632C1199.48 61.8613 1198.95 63.504 1197.9 64.56C1196.96 65.4987 1195.37 65.968 1193.14 65.968H1157.77C1154.13 65.968 1151.43 66.7307 1149.67 68.256C1147.91 69.664 1147.03 71.8347 1147.03 74.768V116.656C1147.03 119.589 1147.91 121.76 1149.67 123.168C1151.43 124.459 1154.13 125.104 1157.77 125.104H1193.14C1195.37 125.104 1196.96 125.632 1197.9 126.688C1198.95 127.627 1199.48 129.211 1199.48 131.44V152.384C1199.48 154.613 1198.95 156.256 1197.9 157.312C1196.96 158.251 1195.37 158.72 1193.14 158.72Z" fill="white"/>
    <path d="M1252.97 158.72H1225.69C1223.46 158.72 1221.82 158.251 1220.76 157.312C1219.82 156.256 1219.36 154.613 1219.36 152.384V38.336C1219.36 36.1067 1219.82 34.5227 1220.76 33.584C1221.82 32.528 1223.46 32 1225.69 32H1252.97C1255.2 32 1256.78 32.528 1257.72 33.584C1258.78 34.5227 1259.31 36.1067 1259.31 38.336V76.528H1288.7V38.336C1288.7 36.1067 1289.17 34.5227 1290.11 33.584C1291.16 32.528 1292.81 32 1295.04 32H1322.32C1324.54 32 1326.13 32.528 1327.07 33.584C1328.12 34.5227 1328.65 36.1067 1328.65 38.336V152.384C1328.65 154.613 1328.12 156.256 1327.07 157.312C1326.13 158.251 1324.54 158.72 1322.32 158.72H1295.04C1292.81 158.72 1291.16 158.251 1290.11 157.312C1289.17 156.256 1288.7 154.613 1288.7 152.384V113.312H1259.31V152.384C1259.31 154.613 1258.78 156.256 1257.72 157.312C1256.78 158.251 1255.2 158.72 1252.97 158.72Z" fill="white"/>
    <path d="M1398.84 68.96L1390.57 95.712H1418.2L1409.93 68.96C1409.46 67.904 1408.93 67.1413 1408.34 66.672C1407.87 66.2027 1407.29 65.968 1406.58 65.968H1402.18C1401.48 65.968 1400.83 66.2027 1400.25 66.672C1399.78 67.1413 1399.31 67.904 1398.84 68.96ZM1388.81 152.384C1388.81 154.613 1388.28 156.256 1387.22 157.312C1386.28 158.251 1384.7 158.72 1382.47 158.72H1356.6C1354.37 158.72 1352.73 158.251 1351.67 157.312C1350.73 156.256 1350.26 154.613 1350.26 152.384V105.92C1350.26 102.4 1350.79 98.352 1351.85 93.776C1353.02 89.2 1354.78 83.8613 1357.13 77.76L1372.44 37.808C1373.14 35.8133 1374.2 34.3467 1375.61 33.408C1377.13 32.4693 1379.07 32 1381.41 32H1428.76C1430.99 32 1432.81 32.4693 1434.21 33.408C1435.74 34.3467 1436.85 35.8133 1437.56 37.808L1452.87 77.76C1455.22 83.8613 1456.92 89.2 1457.97 93.776C1459.15 98.352 1459.73 102.4 1459.73 105.92V152.384C1459.73 154.613 1459.21 156.256 1458.15 157.312C1457.21 158.251 1455.63 158.72 1453.4 158.72H1426.82C1424.48 158.72 1422.72 158.251 1421.54 157.312C1420.49 156.256 1419.96 154.613 1419.96 152.384V127.744H1388.81V152.384Z" fill="white"/>
    <path d="M1521.24 63.68V86.208H1534.44C1537.49 86.208 1539.54 85.4453 1540.6 83.92C1541.66 82.2773 1542.18 80.2827 1542.18 77.936V71.952C1542.18 69.6053 1541.66 67.6693 1540.6 66.144C1539.54 64.5013 1537.49 63.68 1534.44 63.68H1521.24ZM1514.9 158.72H1487.8C1485.57 158.72 1483.93 158.251 1482.87 157.312C1481.93 156.256 1481.46 154.613 1481.46 152.384V38.336C1481.46 36.1067 1481.93 34.5227 1482.87 33.584C1483.93 32.528 1485.57 32 1487.8 32H1546.41C1559.55 32 1568.58 34.7573 1573.51 40.272C1578.56 45.6693 1581.08 52.7093 1581.08 61.392V69.488C1581.08 74.416 1580.32 78.64 1578.79 82.16C1577.38 85.5627 1574.86 88.0267 1571.22 89.552C1577.56 90.256 1582.66 92.8373 1586.54 97.296C1590.53 101.755 1592.52 107.68 1592.52 115.072V152.384C1592.52 154.613 1591.99 156.256 1590.94 157.312C1590 158.251 1588.41 158.72 1586.18 158.72H1558.9C1556.68 158.72 1555.03 158.251 1553.98 157.312C1553.04 156.256 1552.57 154.613 1552.57 152.384V125.456C1552.57 122.875 1552.04 120.997 1550.98 119.824C1550.05 118.533 1548.34 117.888 1545.88 117.888H1521.24V152.384C1521.24 154.613 1520.71 156.256 1519.66 157.312C1518.72 158.251 1517.13 158.72 1514.9 158.72Z" fill="white"/>
    <path d="M1644.82 158.72H1618.6C1616.37 158.72 1614.73 158.251 1613.67 157.312C1612.73 156.256 1612.26 154.613 1612.26 152.384V38.336C1612.26 36.1067 1612.73 34.5227 1613.67 33.584C1614.73 32.528 1616.37 32 1618.6 32H1646.93C1648.81 32 1650.34 32.4107 1651.51 33.232C1652.8 34.0533 1653.97 35.4027 1655.03 37.28L1670.87 65.968C1671.46 67.024 1671.93 67.7867 1672.28 68.256C1672.75 68.7253 1673.33 68.96 1674.04 68.96H1675.62C1676.33 68.96 1676.85 68.7253 1677.21 68.256C1677.68 67.7867 1678.2 67.024 1678.79 65.968L1694.45 37.28C1695.51 35.4027 1696.62 34.0533 1697.8 33.232C1699.09 32.4107 1700.67 32 1702.55 32H1731.06C1733.29 32 1734.88 32.528 1735.81 33.584C1736.87 34.5227 1737.4 36.1067 1737.4 38.336V152.384C1737.4 154.613 1736.87 156.256 1735.81 157.312C1734.88 158.251 1733.29 158.72 1731.06 158.72H1703.96C1701.73 158.72 1700.09 158.251 1699.03 157.312C1698.09 156.256 1697.62 154.613 1697.62 152.384V90.432L1687.24 109.616C1686.18 111.611 1684.89 113.077 1683.37 114.016C1681.96 114.837 1680.14 115.248 1677.91 115.248H1670.87C1668.64 115.248 1666.76 114.837 1665.24 114.016C1663.83 113.077 1662.6 111.611 1661.54 109.616L1651.16 90.432V152.384C1651.16 154.613 1650.63 156.256 1649.57 157.312C1648.64 158.251 1647.05 158.72 1644.82 158.72Z" fill="white"/>
    </g>
    <path id="nota-musical" d="M1953.72 0.543561L1836.23 35.2411C1833.84 35.9903 1831.76 37.4807 1830.28 39.4955C1828.8 41.5104 1828 43.9447 1828 46.4447V142.437C1824.15 141.503 1820.21 141.02 1816.25 140.997C1796.79 140.997 1781 151.521 1781 164.499C1781 177.476 1796.79 188 1816.25 188C1835.71 188 1851.5 177.476 1851.5 164.499V78.6893L1945.5 51.1486V118.939C1941.65 118.002 1937.71 117.518 1933.75 117.496C1914.29 117.496 1898.5 128.02 1898.5 140.997C1898.5 153.974 1914.29 164.499 1933.75 164.499C1953.21 164.499 1969 153.978 1969 140.997V11.7398C1969 9.89505 1968.56 8.07666 1967.73 6.43175C1966.89 4.78685 1965.68 3.36164 1964.19 2.27147C1962.71 1.18131 1960.98 0.456814 1959.16 0.156627C1957.34 -0.143559 1955.48 -0.0110055 1953.72 0.543561Z" fill="url(#paint0_linear_214_60)"/>
  </g>
  <defs>
    <linearGradient id="paint0_linear_214_60" x1="1931.4" y1="-142.516" x2="1679.12" y2="7.77984e-07" gradientUnits="userSpaceOnUse">
      <stop offset="0.0260417" stop-color="#7064FE"/>
      <stop offset="0.364583" stop-color="#89EDF3"/>
      <stop offset="0.53125" stop-color="#9B5FFE"/>
      <stop offset="0.796875" stop-color="#FDC250"/>
      <stop offset="0.958333" stop-color="#FF5E5E"/>
    </linearGradient>
  </defs>
</svg>